<svg width="19" height="18" viewBox="0 0 19 18" fill="none" xmlns="http://www.w3.org/2000/svg">
<path d="M3.65695 17.9252C2.64941 17.9252 1.89216 17.6749 1.38518 17.1744C0.884626 16.6802 0.634347 15.9358 0.634347 14.9411V3.18764C0.634347 2.19294 0.884626 1.44852 1.38518 0.954381C1.89216 0.453823 2.64941 0.203544 3.65695 0.203544H15.3334C16.341 0.203544 17.095 0.453823 17.5956 0.954381C18.1025 1.44852 18.356 2.19294 18.356 3.18764V14.9411C18.356 15.9358 18.1025 16.6802 17.5956 17.1744C17.095 17.6749 16.341 17.9252 15.3334 17.9252H3.65695ZM3.6762 16.3754H15.3142C15.7891 16.3754 16.1549 16.2503 16.4116 16C16.6747 15.7433 16.8062 15.3647 16.8062 14.8641V3.26465C16.8062 2.76409 16.6747 2.38867 16.4116 2.13839C16.1549 1.8817 15.7891 1.75335 15.3142 1.75335H3.6762C3.19489 1.75335 2.82589 1.8817 2.5692 2.13839C2.3125 2.38867 2.18415 2.76409 2.18415 3.26465V14.8641C2.18415 15.3647 2.3125 15.7433 2.5692 16C2.82589 16.2503 3.19489 16.3754 3.6762 16.3754ZM8.45075 13.6127C8.29032 13.6127 8.14272 13.5774 8.00795 13.5068C7.8796 13.4362 7.75446 13.3239 7.63253 13.1699L5.28376 10.2821C5.13616 10.0831 5.06236 9.88421 5.06236 9.68527C5.06236 9.47349 5.13295 9.29381 5.27413 9.14621C5.42174 8.99219 5.59821 8.91518 5.80357 8.91518C5.93834 8.91518 6.06027 8.94406 6.16936 9.00181C6.28488 9.05315 6.40039 9.15583 6.5159 9.30985L8.41225 11.7645L12.4071 5.35352C12.5868 5.06473 12.8114 4.92034 13.0809 4.92034C13.2799 4.92034 13.4595 4.98451 13.62 5.11286C13.7804 5.24121 13.8606 5.41127 13.8606 5.62305C13.8606 5.73214 13.835 5.84124 13.7836 5.95034C13.7387 6.05301 13.6874 6.14927 13.6296 6.23912L9.23047 13.1699C9.03795 13.4651 8.77804 13.6127 8.45075 13.6127Z" fill="#2F4858"/>
</svg>
