<svg width="393" height="852" viewBox="0 0 393 852" fill="none" xmlns="http://www.w3.org/2000/svg">
<rect width="393" height="852" fill="#2F4858"/>
<path d="M116.771 459.215C120.521 459.234 123.236 461.07 123.236 463.863C123.236 466.49 120.961 468.219 117.689 468.492V471.93H124.818V473.473H108.803V471.93H115.854V468.492C112.602 468.219 110.326 466.49 110.326 463.863C110.326 461.07 113.041 459.234 116.771 459.215ZM116.771 460.738C114.076 460.719 112.123 461.969 112.123 463.863C112.123 465.836 114.076 467.047 116.771 467.066C119.486 467.047 121.439 465.836 121.439 463.863C121.439 461.969 119.486 460.719 116.771 460.738ZM140.209 462.145V463.648H128.197V458.414H130.014V462.145H140.209ZM142.084 465.191V466.676H126.068V465.191H142.084ZM140.072 468.082V472.359H129.916V473.98H140.678V475.445H128.061V470.992H138.236V469.527H128.021V468.082H140.072ZM149.076 459.41C151.85 459.391 153.822 461.109 153.842 463.57C153.822 466.031 151.85 467.75 149.076 467.75C146.322 467.75 144.291 466.031 144.311 463.57C144.291 461.109 146.322 459.391 149.076 459.41ZM149.076 461.012C147.377 461.012 146.127 462.027 146.146 463.57C146.127 465.113 147.377 466.129 149.076 466.129C150.775 466.129 152.025 465.113 152.025 463.57C152.025 462.027 150.775 461.012 149.076 461.012ZM157.846 458.16V475.699H155.99V458.16H157.846ZM143.471 470.387C146.654 470.387 151.068 470.348 154.896 469.801L155.033 471.148C151.068 471.91 146.83 471.93 143.705 471.93L143.471 470.387ZM174.428 468.199V471.949H181.537V473.492H165.541V471.949H172.592V468.199H174.428ZM168.51 459.449V462.301H171.029V459.449H172.807V468.18H166.713V459.449H168.51ZM168.51 466.676H171.029V463.785H168.51V466.676ZM176.01 459.449V462.301H178.549V459.449H180.365V468.18H174.232V459.449H176.01ZM176.01 466.676H178.549V463.785H176.01V466.676ZM187.104 461.559C187.084 462.838 187.396 464.703 188.588 466.031C189.76 464.752 190.053 462.926 190.072 461.559V460.934H188.939V459.43H193.861V460.934H191.83V461.559C191.83 463.355 192.572 465.582 194.584 466.637L193.588 467.965C192.25 467.262 191.43 466.051 190.971 464.684C190.58 466.061 189.857 467.359 188.568 468.141C187.299 467.359 186.586 466.07 186.205 464.723C185.727 466.061 184.906 467.262 183.588 467.965L182.592 466.637C184.584 465.562 185.365 463.316 185.365 461.559V460.934H183.236V459.43H188.236V460.934H187.104V461.559ZM196.986 458.16V462.613H199.076V464.176H196.986V468.668H195.15V458.16H196.986ZM196.986 469.41V475.66H195.15V470.914H185.033V469.41H196.986ZM219.545 458.16V475.66H217.67V458.16H219.545ZM214.33 460.035C214.33 465.152 212.143 469.605 206.146 472.477L205.17 470.973C209.828 468.756 212.094 465.602 212.455 461.52H206.01V460.035H214.33ZM238.275 467.711V469.215H222.26V467.711H229.35V466.051H224.311V461.598H234.408V460.035H224.271V458.57H236.264V462.965H226.146V464.605H236.615V466.051H231.186V467.711H238.275ZM236.361 470.445V475.523H234.486V471.93H224.057V470.445H236.361ZM249.76 458.941C252.318 458.941 254.115 460.348 254.135 462.438C254.115 464.215 252.768 465.523 250.736 465.836V467.379C252.289 467.301 253.842 467.164 255.287 466.949L255.424 468.316C251.752 468.98 247.631 469.039 244.623 469.039L244.428 467.535C245.736 467.545 247.27 467.535 248.881 467.477V465.855C246.791 465.562 245.385 464.244 245.404 462.438C245.385 460.348 247.201 458.941 249.76 458.941ZM249.76 460.367C248.217 460.367 247.123 461.168 247.143 462.438C247.123 463.668 248.217 464.488 249.76 464.488C251.322 464.488 252.377 463.668 252.377 462.438C252.377 461.168 251.322 460.367 249.76 460.367ZM258.217 458.18V463.961H260.717V465.523H258.217V471.559H256.361V458.18H258.217ZM258.842 473.766V475.289H246.908V470.387H248.764V473.766H258.842ZM277.748 472.008V473.57H261.732V472.008H266.107V468.922H263.686V463.355H273.959V460.914H263.646V459.391H275.795V464.859H265.521V467.398H276.205V468.922H273.549V472.008H277.748ZM267.904 472.008H271.732V468.922H267.904V472.008ZM282.24 459.859L282.064 469.918H280.131L279.955 459.859H282.24ZM281.107 474.137C280.346 474.137 279.701 473.512 279.721 472.75C279.701 471.988 280.346 471.363 281.107 471.363C281.85 471.363 282.494 471.988 282.494 472.75C282.494 473.512 281.85 474.137 281.107 474.137ZM122.748 488.16V505.66H120.971V496.695H118.725V504.762H116.986V488.512H118.725V495.172H120.971V488.16H122.748ZM110.443 490.23V499.566C112.064 499.557 113.832 499.43 115.814 499.039L116.01 500.66C113.607 501.09 111.596 501.207 109.721 501.207H108.588V490.23H110.443ZM130.014 488.746C132.65 488.766 134.584 490.387 134.604 492.672C134.584 494.977 132.65 496.578 130.014 496.578C127.357 496.578 125.404 494.977 125.404 492.672C125.404 490.387 127.357 488.766 130.014 488.746ZM130.014 490.309C128.393 490.289 127.201 491.246 127.221 492.672C127.201 494.117 128.393 495.074 130.014 495.074C131.615 495.074 132.807 494.117 132.807 492.672C132.807 491.246 131.615 490.289 130.014 490.309ZM139.564 488.16V497.066H137.709V488.16H139.564ZM139.564 497.867V502.281H129.916V503.961H140.15V505.445H128.119V500.895H137.729V499.352H128.061V497.867H139.564ZM156.518 496.227V497.711H151.225V501.988H158.354V503.512H142.338V501.988H149.389V497.711H144.33V489.508H156.361V491.012H146.186V496.227H156.518ZM173.393 498.199V501.949H180.502V503.492H164.506V501.949H171.557V498.199H173.393ZM167.475 489.449V492.301H169.994V489.449H171.771V498.18H165.678V489.449H167.475ZM167.475 496.676H169.994V493.785H167.475V496.676ZM174.975 489.449V492.301H177.514V489.449H179.33V498.18H173.197V489.449H174.975ZM174.975 496.676H177.514V493.785H174.975V496.676ZM186.068 491.559C186.049 492.838 186.361 494.703 187.553 496.031C188.725 494.752 189.018 492.926 189.037 491.559V490.934H187.904V489.43H192.826V490.934H190.795V491.559C190.795 493.355 191.537 495.582 193.549 496.637L192.553 497.965C191.215 497.262 190.395 496.051 189.936 494.684C189.545 496.061 188.822 497.359 187.533 498.141C186.264 497.359 185.551 496.07 185.17 494.723C184.691 496.061 183.871 497.262 182.553 497.965L181.557 496.637C183.549 495.562 184.33 493.316 184.33 491.559V490.934H182.201V489.43H187.201V490.934H186.068V491.559ZM195.951 488.16V492.613H198.041V494.176H195.951V498.668H194.115V488.16H195.951ZM195.951 499.41V505.66H194.115V500.914H183.998V499.41H195.951ZM207.729 491.051V492.555H199.037V491.051H202.475V488.668H204.311V491.051H207.729ZM203.393 493.609C205.619 493.609 207.182 495.27 207.201 497.633C207.182 500.016 205.619 501.695 203.393 501.695C201.205 501.695 199.584 500.016 199.604 497.633C199.584 495.27 201.205 493.609 203.393 493.609ZM203.393 495.152C202.123 495.152 201.244 496.188 201.244 497.633C201.244 499.117 202.123 500.113 203.393 500.113C204.643 500.113 205.561 499.117 205.561 497.633C205.561 496.188 204.643 495.152 203.393 495.152ZM214.057 488.16V505.66H212.299V496.969H210.287V504.84H208.529V488.551H210.287V495.445H212.299V488.16H214.057ZM232.377 501.949V503.492H216.361V501.949H223.412V498.355H218.197V489.352H220.053V492.359H228.646V489.352H230.482V498.355H225.248V501.949H232.377ZM220.053 496.852H228.646V493.863H220.053V496.852ZM238.334 489.469C240.951 489.469 242.807 491.852 242.826 495.602C242.807 499.371 240.951 501.754 238.334 501.754C235.717 501.754 233.842 499.371 233.861 495.602C233.842 491.852 235.717 489.469 238.334 489.469ZM238.334 491.129C236.732 491.129 235.639 492.848 235.639 495.602C235.639 498.375 236.732 500.094 238.334 500.094C239.955 500.094 241.049 498.375 241.049 495.602C241.049 492.848 239.955 491.129 238.334 491.129ZM247.279 488.16V495.016H250.092V496.578H247.279V505.66H245.424V488.16H247.279ZM266.947 501.93V503.473H250.932V501.93H254.76V497.359C253.324 496.568 252.455 495.309 252.455 493.746C252.455 490.992 255.15 489.176 258.9 489.176C262.67 489.176 265.365 490.992 265.365 493.746C265.365 495.289 264.525 496.529 263.119 497.32V501.93H266.947ZM258.9 490.66C256.146 490.66 254.252 491.852 254.252 493.746C254.252 495.621 256.146 496.852 258.9 496.852C261.635 496.852 263.568 495.621 263.568 493.746C263.568 491.852 261.635 490.66 258.9 490.66ZM256.596 501.93H261.244V498.023C260.531 498.209 259.74 498.297 258.9 498.297C258.08 498.297 257.299 498.209 256.596 498.043V501.93ZM275.092 502.184C274.33 502.184 273.686 501.559 273.705 500.797C273.686 500.035 274.33 499.41 275.092 499.41C275.834 499.41 276.479 500.035 276.479 500.797C276.479 501.559 275.834 502.184 275.092 502.184ZM275.092 494.469C274.33 494.469 273.686 493.844 273.705 493.082C273.686 492.32 274.33 491.695 275.092 491.695C275.834 491.695 276.479 492.32 276.479 493.082C276.479 493.844 275.834 494.469 275.092 494.469ZM283.178 498.609C283.158 502.301 282.123 505.367 280.287 507.984H278.373C279.721 506.031 281.01 502.105 281.01 498.609C281.01 495.133 279.721 491.188 278.373 489.254H280.287C282.123 491.871 283.158 494.938 283.178 498.609Z" fill="white"/>
<path d="M156.734 374.891V388.68H161.812V393.328H156.734V410.75H151.188V374.891H156.734ZM149.078 380.125V384.578H128.102V380.125H135.875V375.477H141.5V380.125H149.078ZM138.688 386.297C143.922 386.297 147.906 389.891 147.945 394.93C147.906 400.008 143.922 403.562 138.688 403.562C133.297 403.562 129.352 400.008 129.391 394.93C129.352 389.891 133.297 386.297 138.688 386.297ZM138.688 390.828C136.383 390.867 134.742 392.352 134.781 394.93C134.742 397.586 136.383 398.992 138.688 398.992C140.914 398.992 142.516 397.586 142.555 394.93C142.516 392.352 140.914 390.867 138.688 390.828ZM191.891 375.906V387H172.359V389.5H192.75V393.914H166.656V382.781H186.109V380.398H166.578V375.906H191.891ZM195.602 396.297V400.75H181.969V410.828H176.305V400.75H162.828V396.297H195.602ZM204.859 377.195V382.508H207.359V377.195H212.711V394.695H214.781V377.195H220.172V382.508H222.75V377.195H228.18V395.906H216.539V402.156H230.094V406.727H197.438V402.156H210.992V395.906H199.391V377.195H204.859ZM204.859 391.453H207.359V386.883H204.859V391.453ZM220.172 391.453H222.75V386.883H220.172V391.453ZM261.695 374.891V383.211H265.094V387.859H261.695V396.219H256.109V391.922L253.336 395.633C250.895 394.324 249.352 392.254 248.414 389.734C247.535 392.332 246.07 394.598 243.648 396.023C241.305 394.617 239.84 392.43 239 389.891C238.043 392.371 236.5 394.383 234.078 395.633L231.109 391.688C234.938 389.598 236.227 385.691 236.344 381.648H232.594V377.156H243.18V381.648H241.578C241.617 384.324 242.105 387.176 243.688 389.5C245.25 387.195 245.719 384.363 245.797 381.648H244.234V377.156H254.508V381.648H251.109C251.188 385.633 252.359 389.52 256.109 391.57V374.891H261.695ZM261.695 397.625V410.75H256.109V402.078H236.227V397.625H261.695Z" fill="white"/>
<mask id="path-3-outside-1_57_1950" maskUnits="userSpaceOnUse" x="180" y="332" width="36" height="38" fill="black">
<rect fill="white" x="180" y="332" width="36" height="38"/>
<path d="M195.757 369.094C193.525 369.094 191.484 368.712 189.634 367.949C187.784 367.197 186.182 366.145 184.829 364.792C183.476 363.427 182.43 361.843 181.689 360.039C180.961 358.223 180.597 356.258 180.597 354.141C180.597 351.979 180.978 349.955 181.741 348.07C182.505 346.185 183.557 344.543 184.898 343.144C186.251 341.733 187.818 340.663 189.599 339.935C190.004 339.773 190.351 339.715 190.64 339.761C190.929 339.808 191.155 339.929 191.317 340.126C191.663 340.519 191.663 341.062 191.317 341.756C191.051 342.3 190.825 343.057 190.64 344.028C190.467 344.988 190.38 345.994 190.38 347.047C190.38 349.579 190.9 351.776 191.941 353.638C192.993 355.5 194.474 356.946 196.382 357.975C198.29 358.992 200.539 359.501 203.129 359.501C204.124 359.501 205.02 359.432 205.818 359.293C206.627 359.143 207.362 358.935 208.021 358.669C208.322 358.553 208.599 358.513 208.854 358.547C209.108 358.57 209.31 358.657 209.461 358.807C209.634 358.969 209.738 359.195 209.773 359.484C209.808 359.761 209.744 360.085 209.582 360.455C208.807 362.271 207.738 363.82 206.373 365.104C205.02 366.399 203.442 367.388 201.638 368.07C199.834 368.753 197.873 369.094 195.757 369.094ZM195.792 366.44C197.237 366.44 198.613 366.243 199.92 365.85C201.239 365.468 202.43 364.913 203.494 364.185C204.569 363.456 205.465 362.595 206.182 361.6C205.812 361.716 205.292 361.82 204.621 361.912C203.962 362.005 203.245 362.051 202.47 362.051C199.556 362.051 197 361.456 194.803 360.264C192.606 359.073 190.894 357.408 189.669 355.269C188.443 353.129 187.83 350.632 187.83 347.775C187.83 346.943 187.888 346.122 188.003 345.312C188.119 344.503 188.287 343.815 188.506 343.248C187.431 344.069 186.5 345.035 185.714 346.145C184.927 347.255 184.32 348.469 183.892 349.787C183.465 351.094 183.251 352.476 183.251 353.933C183.251 355.714 183.551 357.368 184.153 358.894C184.765 360.409 185.627 361.733 186.737 362.866C187.859 363.988 189.183 364.861 190.709 365.486C192.247 366.122 193.942 366.44 195.792 366.44ZM208.628 353.239C208.466 353.239 208.333 353.187 208.229 353.083C208.125 352.979 208.061 352.852 208.038 352.702C207.888 351.545 207.732 350.643 207.57 349.996C207.42 349.348 207.171 348.862 206.824 348.538C206.489 348.215 205.98 347.96 205.298 347.775C204.615 347.59 203.673 347.382 202.47 347.151C202.123 347.093 201.95 346.902 201.95 346.578C201.95 346.416 201.996 346.283 202.089 346.179C202.193 346.064 202.32 346 202.47 345.989C203.673 345.815 204.615 345.647 205.298 345.486C205.98 345.324 206.489 345.075 206.824 344.74C207.171 344.393 207.42 343.884 207.57 343.213C207.732 342.543 207.888 341.623 208.038 340.455C208.084 340.085 208.281 339.9 208.628 339.9C208.975 339.9 209.172 340.091 209.218 340.473C209.357 341.629 209.507 342.531 209.669 343.179C209.831 343.826 210.085 344.312 210.432 344.636C210.779 344.959 211.294 345.208 211.976 345.381C212.67 345.555 213.606 345.757 214.786 345.989C215.133 346.058 215.306 346.255 215.306 346.578C215.306 346.902 215.11 347.093 214.717 347.151C213.537 347.347 212.612 347.532 211.941 347.706C211.27 347.879 210.762 348.134 210.415 348.469C210.079 348.793 209.831 349.284 209.669 349.944C209.507 350.603 209.357 351.51 209.218 352.667C209.172 353.048 208.975 353.239 208.628 353.239ZM200.337 341.496C200.14 341.496 200.019 341.392 199.972 341.184C199.834 340.455 199.712 339.889 199.608 339.484C199.504 339.079 199.348 338.773 199.14 338.564C198.932 338.345 198.619 338.177 198.203 338.061C197.787 337.934 197.203 337.795 196.451 337.645C196.231 337.599 196.121 337.477 196.121 337.281C196.121 337.084 196.231 336.963 196.451 336.917C197.203 336.766 197.781 336.627 198.186 336.5C198.602 336.373 198.908 336.205 199.105 335.997C199.313 335.789 199.469 335.483 199.573 335.078C199.689 334.662 199.822 334.095 199.972 333.378C200.019 333.17 200.14 333.066 200.337 333.066C200.533 333.066 200.649 333.17 200.683 333.378C200.845 334.095 200.978 334.662 201.082 335.078C201.198 335.483 201.354 335.789 201.551 335.997C201.759 336.205 202.065 336.373 202.47 336.5C202.886 336.627 203.47 336.766 204.222 336.917C204.442 336.963 204.552 337.084 204.552 337.281C204.552 337.477 204.442 337.599 204.222 337.645C203.47 337.795 202.881 337.928 202.453 338.044C202.036 338.16 201.724 338.327 201.516 338.547C201.319 338.755 201.163 339.067 201.048 339.484C200.944 339.889 200.822 340.455 200.683 341.184C200.649 341.392 200.533 341.496 200.337 341.496Z"/>
</mask>
<path d="M195.757 369.094C193.525 369.094 191.484 368.712 189.634 367.949C187.784 367.197 186.182 366.145 184.829 364.792C183.476 363.427 182.43 361.843 181.689 360.039C180.961 358.223 180.597 356.258 180.597 354.141C180.597 351.979 180.978 349.955 181.741 348.07C182.505 346.185 183.557 344.543 184.898 343.144C186.251 341.733 187.818 340.663 189.599 339.935C190.004 339.773 190.351 339.715 190.64 339.761C190.929 339.808 191.155 339.929 191.317 340.126C191.663 340.519 191.663 341.062 191.317 341.756C191.051 342.3 190.825 343.057 190.64 344.028C190.467 344.988 190.38 345.994 190.38 347.047C190.38 349.579 190.9 351.776 191.941 353.638C192.993 355.5 194.474 356.946 196.382 357.975C198.29 358.992 200.539 359.501 203.129 359.501C204.124 359.501 205.02 359.432 205.818 359.293C206.627 359.143 207.362 358.935 208.021 358.669C208.322 358.553 208.599 358.513 208.854 358.547C209.108 358.57 209.31 358.657 209.461 358.807C209.634 358.969 209.738 359.195 209.773 359.484C209.808 359.761 209.744 360.085 209.582 360.455C208.807 362.271 207.738 363.82 206.373 365.104C205.02 366.399 203.442 367.388 201.638 368.07C199.834 368.753 197.873 369.094 195.757 369.094ZM195.792 366.44C197.237 366.44 198.613 366.243 199.92 365.85C201.239 365.468 202.43 364.913 203.494 364.185C204.569 363.456 205.465 362.595 206.182 361.6C205.812 361.716 205.292 361.82 204.621 361.912C203.962 362.005 203.245 362.051 202.47 362.051C199.556 362.051 197 361.456 194.803 360.264C192.606 359.073 190.894 357.408 189.669 355.269C188.443 353.129 187.83 350.632 187.83 347.775C187.83 346.943 187.888 346.122 188.003 345.312C188.119 344.503 188.287 343.815 188.506 343.248C187.431 344.069 186.5 345.035 185.714 346.145C184.927 347.255 184.32 348.469 183.892 349.787C183.465 351.094 183.251 352.476 183.251 353.933C183.251 355.714 183.551 357.368 184.153 358.894C184.765 360.409 185.627 361.733 186.737 362.866C187.859 363.988 189.183 364.861 190.709 365.486C192.247 366.122 193.942 366.44 195.792 366.44ZM208.628 353.239C208.466 353.239 208.333 353.187 208.229 353.083C208.125 352.979 208.061 352.852 208.038 352.702C207.888 351.545 207.732 350.643 207.57 349.996C207.42 349.348 207.171 348.862 206.824 348.538C206.489 348.215 205.98 347.96 205.298 347.775C204.615 347.59 203.673 347.382 202.47 347.151C202.123 347.093 201.95 346.902 201.95 346.578C201.95 346.416 201.996 346.283 202.089 346.179C202.193 346.064 202.32 346 202.47 345.989C203.673 345.815 204.615 345.647 205.298 345.486C205.98 345.324 206.489 345.075 206.824 344.74C207.171 344.393 207.42 343.884 207.57 343.213C207.732 342.543 207.888 341.623 208.038 340.455C208.084 340.085 208.281 339.9 208.628 339.9C208.975 339.9 209.172 340.091 209.218 340.473C209.357 341.629 209.507 342.531 209.669 343.179C209.831 343.826 210.085 344.312 210.432 344.636C210.779 344.959 211.294 345.208 211.976 345.381C212.67 345.555 213.606 345.757 214.786 345.989C215.133 346.058 215.306 346.255 215.306 346.578C215.306 346.902 215.11 347.093 214.717 347.151C213.537 347.347 212.612 347.532 211.941 347.706C211.27 347.879 210.762 348.134 210.415 348.469C210.079 348.793 209.831 349.284 209.669 349.944C209.507 350.603 209.357 351.51 209.218 352.667C209.172 353.048 208.975 353.239 208.628 353.239ZM200.337 341.496C200.14 341.496 200.019 341.392 199.972 341.184C199.834 340.455 199.712 339.889 199.608 339.484C199.504 339.079 199.348 338.773 199.14 338.564C198.932 338.345 198.619 338.177 198.203 338.061C197.787 337.934 197.203 337.795 196.451 337.645C196.231 337.599 196.121 337.477 196.121 337.281C196.121 337.084 196.231 336.963 196.451 336.917C197.203 336.766 197.781 336.627 198.186 336.5C198.602 336.373 198.908 336.205 199.105 335.997C199.313 335.789 199.469 335.483 199.573 335.078C199.689 334.662 199.822 334.095 199.972 333.378C200.019 333.17 200.14 333.066 200.337 333.066C200.533 333.066 200.649 333.17 200.683 333.378C200.845 334.095 200.978 334.662 201.082 335.078C201.198 335.483 201.354 335.789 201.551 335.997C201.759 336.205 202.065 336.373 202.47 336.5C202.886 336.627 203.47 336.766 204.222 336.917C204.442 336.963 204.552 337.084 204.552 337.281C204.552 337.477 204.442 337.599 204.222 337.645C203.47 337.795 202.881 337.928 202.453 338.044C202.036 338.16 201.724 338.327 201.516 338.547C201.319 338.755 201.163 339.067 201.048 339.484C200.944 339.889 200.822 340.455 200.683 341.184C200.649 341.392 200.533 341.496 200.337 341.496Z" fill="#FFF23A"/>
<path d="M189.634 367.949L189.825 367.487L189.822 367.486L189.634 367.949ZM184.829 364.792L184.474 365.144L184.476 365.145L184.829 364.792ZM181.689 360.039L181.225 360.225L181.227 360.229L181.689 360.039ZM184.898 343.144L184.538 342.798L184.538 342.798L184.898 343.144ZM189.599 339.935L189.414 339.471L189.41 339.472L189.599 339.935ZM191.317 340.126L190.931 340.443L190.936 340.45L190.942 340.456L191.317 340.126ZM191.317 341.756L190.869 341.533L190.867 341.536L191.317 341.756ZM190.64 344.028L190.149 343.935L190.148 343.94L190.64 344.028ZM191.941 353.638L191.505 353.882L191.506 353.884L191.941 353.638ZM196.382 357.975L196.144 358.415L196.146 358.416L196.382 357.975ZM205.818 359.293L205.904 359.786L205.909 359.785L205.818 359.293ZM208.021 358.669L207.841 358.202L207.834 358.205L208.021 358.669ZM208.854 358.547L208.786 359.043L208.797 359.044L208.808 359.045L208.854 358.547ZM209.461 358.807L209.107 359.161L209.113 359.167L209.119 359.173L209.461 358.807ZM209.773 359.484L209.276 359.543L209.277 359.546L209.773 359.484ZM209.582 360.455L209.124 360.255L209.122 360.259L209.582 360.455ZM206.373 365.104L206.03 364.74L206.027 364.743L206.373 365.104ZM199.92 365.85L199.781 365.37L199.776 365.371L199.92 365.85ZM203.494 364.185L203.213 363.771L203.211 363.772L203.494 364.185ZM206.182 361.6L206.588 361.893L207.465 360.675L206.033 361.123L206.182 361.6ZM204.621 361.912L204.553 361.417L204.552 361.417L204.621 361.912ZM194.803 360.264L194.565 360.704L194.803 360.264ZM189.669 355.269L189.235 355.517L189.669 355.269ZM188.506 343.248L188.973 343.429L189.615 341.773L188.203 342.851L188.506 343.248ZM185.714 346.145L185.306 345.856L185.714 346.145ZM183.892 349.787L184.368 349.943L184.368 349.942L183.892 349.787ZM184.153 358.894L183.687 359.077L183.689 359.082L184.153 358.894ZM186.737 362.866L186.38 363.216L186.384 363.22L186.737 362.866ZM190.709 365.486L190.9 365.024L190.899 365.023L190.709 365.486ZM208.038 352.702L207.542 352.766L207.544 352.778L208.038 352.702ZM207.57 349.996L207.083 350.109L207.085 350.117L207.57 349.996ZM206.824 348.538L206.477 348.898L206.483 348.904L206.824 348.538ZM202.47 347.151L202.565 346.66L202.552 346.658L202.47 347.151ZM202.089 346.179L201.717 345.845L201.715 345.847L202.089 346.179ZM202.47 345.989L202.508 346.487L202.525 346.486L202.541 346.483L202.47 345.989ZM207.57 343.213L207.084 343.096L207.082 343.104L207.57 343.213ZM208.038 340.455L208.534 340.519L208.534 340.517L208.038 340.455ZM209.218 340.473L209.714 340.413L209.714 340.412L209.218 340.473ZM211.976 345.381L211.853 345.866L211.855 345.867L211.976 345.381ZM214.786 345.989L214.884 345.498L214.882 345.498L214.786 345.989ZM214.717 347.151L214.644 346.656L214.634 346.658L214.717 347.151ZM211.941 347.706L212.066 348.19L211.941 347.706ZM210.415 348.469L210.762 348.829L210.762 348.829L210.415 348.469ZM209.218 352.667L209.714 352.727L209.714 352.726L209.218 352.667ZM199.972 341.184L199.481 341.277L199.483 341.285L199.484 341.292L199.972 341.184ZM199.14 338.564L198.777 338.908L198.786 338.918L199.14 338.564ZM198.203 338.061L198.057 338.54L198.069 338.543L198.203 338.061ZM196.451 337.645L196.348 338.134L196.353 338.135L196.451 337.645ZM196.451 336.917L196.353 336.426L196.348 336.427L196.451 336.917ZM198.186 336.5L198.04 336.022L198.036 336.023L198.186 336.5ZM199.105 335.997L198.751 335.644L198.746 335.649L198.741 335.654L199.105 335.997ZM199.573 335.078L199.091 334.944L199.089 334.953L199.573 335.078ZM199.972 333.378L199.484 333.269L199.483 333.275L199.972 333.378ZM200.683 333.378L200.19 333.46L200.193 333.474L200.196 333.488L200.683 333.378ZM201.082 335.078L200.597 335.199L200.599 335.207L200.602 335.215L201.082 335.078ZM201.551 335.997L201.187 336.341L201.192 336.346L201.197 336.351L201.551 335.997ZM202.47 336.5L202.32 336.977L202.324 336.978L202.47 336.5ZM204.222 336.917L204.325 336.427L204.32 336.426L204.222 336.917ZM204.222 337.645L204.32 338.135L204.325 338.134L204.222 337.645ZM202.453 338.044L202.322 337.561L202.319 337.562L202.453 338.044ZM201.516 338.547L201.153 338.203L201.153 338.204L201.516 338.547ZM201.048 339.484L200.566 339.35L200.563 339.359L201.048 339.484ZM200.683 341.184L200.192 341.09L200.19 341.102L200.683 341.184ZM195.757 368.594C193.583 368.594 191.608 368.222 189.825 367.487L189.443 368.411C191.361 369.202 193.467 369.594 195.757 369.594V368.594ZM189.822 367.486C188.031 366.758 186.486 365.742 185.183 364.438L184.476 365.145C185.878 366.548 187.536 367.636 189.446 368.412L189.822 367.486ZM185.184 364.44C183.878 363.122 182.868 361.594 182.152 359.849L181.227 360.229C181.991 362.092 183.074 363.732 184.474 365.144L185.184 364.44ZM182.153 359.853C181.451 358.101 181.097 356.199 181.097 354.141H180.097C180.097 356.316 180.471 358.346 181.225 360.225L182.153 359.853ZM181.097 354.141C181.097 352.039 181.467 350.079 182.205 348.258L181.278 347.882C180.489 349.831 180.097 351.919 180.097 354.141H181.097ZM182.205 348.258C182.946 346.429 183.964 344.841 185.259 343.49L184.538 342.798C183.15 344.245 182.064 345.942 181.278 347.882L182.205 348.258ZM185.259 343.49C186.565 342.129 188.073 341.099 189.789 340.398L189.41 339.472C187.563 340.227 185.938 341.337 184.538 342.798L185.259 343.49ZM189.785 340.399C190.144 340.255 190.395 340.228 190.561 340.255L190.719 339.268C190.307 339.202 189.864 339.29 189.414 339.471L189.785 340.399ZM190.561 340.255C190.749 340.285 190.858 340.355 190.931 340.443L191.703 339.808C191.452 339.503 191.109 339.33 190.719 339.268L190.561 340.255ZM190.942 340.456C191.092 340.626 191.176 340.919 190.869 341.533L191.764 341.98C192.151 341.206 192.235 340.411 191.691 339.795L190.942 340.456ZM190.867 341.536C190.573 342.137 190.338 342.944 190.149 343.935L191.131 344.122C191.312 343.171 191.528 342.462 191.766 341.976L190.867 341.536ZM190.148 343.94C189.969 344.931 189.88 345.967 189.88 347.047H190.88C190.88 346.022 190.964 345.046 191.132 344.117L190.148 343.94ZM189.88 347.047C189.88 349.649 190.415 351.933 191.505 353.882L192.377 353.394C191.386 351.62 190.88 349.51 190.88 347.047H189.88ZM191.506 353.884C192.605 355.829 194.154 357.342 196.144 358.415L196.619 357.535C194.793 356.55 193.382 355.171 192.376 353.392L191.506 353.884ZM196.146 358.416C198.14 359.479 200.473 360.001 203.129 360.001V359.001C200.605 359.001 198.44 358.506 196.617 357.534L196.146 358.416ZM203.129 360.001C204.146 360.001 205.072 359.93 205.904 359.786L205.732 358.801C204.968 358.933 204.101 359.001 203.129 359.001V360.001ZM205.909 359.785C206.746 359.629 207.514 359.413 208.208 359.132L207.834 358.205C207.21 358.457 206.508 358.656 205.727 358.802L205.909 359.785ZM208.2 359.135C208.442 359.042 208.634 359.022 208.786 359.043L208.921 358.052C208.565 358.003 208.201 358.064 207.841 358.202L208.2 359.135ZM208.808 359.045C208.971 359.06 209.055 359.109 209.107 359.161L209.814 358.454C209.565 358.205 209.245 358.081 208.899 358.049L208.808 359.045ZM209.119 359.173C209.188 359.237 209.252 359.344 209.276 359.543L210.269 359.424C210.224 359.046 210.08 358.701 209.802 358.442L209.119 359.173ZM209.277 359.546C209.296 359.703 209.265 359.933 209.124 360.255L210.04 360.656C210.223 360.238 210.319 359.82 210.269 359.422L209.277 359.546ZM209.122 360.259C208.373 362.015 207.342 363.506 206.03 364.74L206.716 365.468C208.133 364.135 209.242 362.527 210.042 360.652L209.122 360.259ZM206.027 364.743C204.724 365.99 203.204 366.943 201.461 367.603L201.814 368.538C203.679 367.833 205.316 366.808 206.719 365.465L206.027 364.743ZM201.461 367.603C199.718 368.262 197.819 368.594 195.757 368.594V369.594C197.928 369.594 199.949 369.244 201.814 368.538L201.461 367.603ZM195.792 366.94C197.283 366.94 198.708 366.737 200.064 366.329L199.776 365.371C198.519 365.749 197.191 365.94 195.792 365.94V366.94ZM200.059 366.33C201.425 365.935 202.665 365.358 203.776 364.597L203.211 363.772C202.194 364.469 201.052 365.002 199.781 365.37L200.059 366.33ZM203.774 364.599C204.895 363.839 205.835 362.937 206.588 361.893L205.777 361.308C205.096 362.252 204.243 363.073 203.213 363.771L203.774 364.599ZM206.033 361.123C205.702 361.226 205.213 361.326 204.553 361.417L204.689 362.408C205.37 362.314 205.922 362.205 206.331 362.077L206.033 361.123ZM204.552 361.417C203.919 361.506 203.225 361.551 202.47 361.551V362.551C203.264 362.551 204.005 362.504 204.691 362.408L204.552 361.417ZM202.47 361.551C199.625 361.551 197.154 360.97 195.041 359.825L194.565 360.704C196.846 361.941 199.487 362.551 202.47 362.551V361.551ZM195.041 359.825C192.925 358.677 191.281 357.078 190.102 355.02L189.235 355.517C190.507 357.738 192.287 359.469 194.565 360.704L195.041 359.825ZM190.102 355.02C188.927 352.968 188.33 350.558 188.33 347.775H187.33C187.33 350.705 187.959 353.291 189.235 355.517L190.102 355.02ZM188.33 347.775C188.33 346.966 188.386 346.168 188.498 345.383L187.508 345.241C187.389 346.075 187.33 346.919 187.33 347.775H188.33ZM188.498 345.383C188.61 344.599 188.77 343.95 188.973 343.429L188.04 343.067C187.803 343.679 187.628 344.406 187.508 345.241L188.498 345.383ZM188.203 342.851C187.087 343.702 186.121 344.705 185.306 345.856L186.122 346.434C186.879 345.365 187.775 344.436 188.81 343.645L188.203 342.851ZM185.306 345.856C184.49 347.008 183.86 348.268 183.417 349.633L184.368 349.942C184.781 348.671 185.365 347.502 186.122 346.434L185.306 345.856ZM183.417 349.632C182.972 350.992 182.751 352.426 182.751 353.933H183.751C183.751 352.526 183.957 351.197 184.368 349.943L183.417 349.632ZM182.751 353.933C182.751 355.771 183.061 357.488 183.687 359.077L184.618 358.711C184.041 357.248 183.751 355.657 183.751 353.933H182.751ZM183.689 359.082C184.326 360.655 185.223 362.035 186.38 363.216L187.094 362.517C186.031 361.431 185.205 360.163 184.616 358.707L183.689 359.082ZM186.384 363.22C187.554 364.391 188.935 365.3 190.52 365.948L190.899 365.023C189.431 364.423 188.164 363.586 187.091 362.513L186.384 363.22ZM190.518 365.948C192.123 366.611 193.883 366.94 195.792 366.94V365.94C194 365.94 192.372 365.632 190.9 365.024L190.518 365.948ZM208.628 352.739C208.601 352.739 208.59 352.735 208.589 352.735C208.588 352.734 208.588 352.734 208.588 352.734C208.587 352.734 208.586 352.733 208.583 352.73L207.875 353.437C208.083 353.644 208.348 353.739 208.628 353.739V352.739ZM208.583 352.73C208.556 352.703 208.54 352.675 208.532 352.626L207.544 352.778C207.583 353.029 207.694 353.255 207.875 353.437L208.583 352.73ZM208.534 352.637C208.383 351.473 208.224 350.549 208.055 349.874L207.085 350.117C207.24 350.737 207.393 351.617 207.542 352.766L208.534 352.637ZM208.057 349.883C207.893 349.176 207.608 348.587 207.165 348.173L206.483 348.904C206.733 349.138 206.946 349.52 207.083 350.109L208.057 349.883ZM207.171 348.179C206.752 347.774 206.153 347.489 205.428 347.293L205.167 348.258C205.806 348.431 206.225 348.656 206.477 348.898L207.171 348.179ZM205.428 347.293C204.728 347.103 203.772 346.892 202.565 346.66L202.376 347.642C203.574 347.872 204.502 348.078 205.167 348.258L205.428 347.293ZM202.552 346.658C202.45 346.641 202.438 346.615 202.45 346.628C202.455 346.634 202.457 346.639 202.456 346.637C202.455 346.633 202.45 346.615 202.45 346.578H201.45C201.45 346.832 201.52 347.091 201.71 347.301C201.896 347.505 202.144 347.603 202.388 347.644L202.552 346.658ZM202.45 346.578C202.45 346.545 202.454 346.528 202.457 346.521C202.459 346.516 202.46 346.514 202.462 346.512L201.715 345.847C201.528 346.058 201.45 346.315 201.45 346.578H202.45ZM202.46 346.514C202.474 346.498 202.483 346.494 202.486 346.492C202.488 346.491 202.494 346.488 202.508 346.487L202.432 345.49C202.149 345.512 201.904 345.637 201.717 345.845L202.46 346.514ZM202.541 346.483C203.75 346.309 204.709 346.139 205.413 345.972L205.182 344.999C204.521 345.156 203.596 345.321 202.399 345.494L202.541 346.483ZM205.413 345.972C206.145 345.798 206.752 345.518 207.178 345.093L206.47 344.386C206.225 344.632 205.815 344.849 205.182 344.999L205.413 345.972ZM207.178 345.093C207.613 344.658 207.895 344.05 208.058 343.323L207.082 343.104C206.944 343.718 206.729 344.128 206.47 344.386L207.178 345.093ZM208.056 343.331C208.224 342.634 208.383 341.694 208.534 340.519L207.542 340.391C207.393 341.552 207.24 342.451 207.084 343.096L208.056 343.331ZM208.534 340.517C208.549 340.404 208.577 340.39 208.563 340.403C208.557 340.409 208.552 340.41 208.557 340.408C208.564 340.406 208.585 340.4 208.628 340.4V339.4C208.365 339.4 208.093 339.472 207.878 339.675C207.667 339.873 207.574 340.136 207.542 340.393L208.534 340.517ZM208.628 340.4C208.67 340.4 208.689 340.406 208.694 340.408C208.698 340.409 208.693 340.407 208.687 340.402C208.676 340.391 208.707 340.41 208.721 340.533L209.714 340.412C209.683 340.153 209.592 339.886 209.384 339.684C209.169 339.476 208.895 339.4 208.628 339.4V340.4ZM208.721 340.532C208.861 341.696 209.014 342.622 209.184 343.3L210.154 343.057C209.999 342.44 209.852 341.561 209.714 340.413L208.721 340.532ZM209.184 343.3C209.36 344.005 209.65 344.59 210.091 345.001L210.773 344.27C210.52 344.034 210.301 343.648 210.154 343.057L209.184 343.3ZM210.091 345.001C210.522 345.403 211.125 345.681 211.853 345.866L212.099 344.897C211.462 344.735 211.036 344.515 210.773 344.27L210.091 345.001ZM211.855 345.867C212.56 346.043 213.507 346.247 214.69 346.479L214.882 345.498C213.706 345.267 212.779 345.067 212.097 344.896L211.855 345.867ZM214.688 346.479C214.791 346.5 214.808 346.527 214.801 346.519C214.798 346.515 214.798 346.513 214.799 346.518C214.801 346.523 214.806 346.542 214.806 346.578H215.806C215.806 346.324 215.736 346.067 215.551 345.857C215.37 345.653 215.128 345.547 214.884 345.498L214.688 346.479ZM214.806 346.578C214.806 346.609 214.802 346.62 214.802 346.618C214.804 346.615 214.807 346.609 214.811 346.606C214.815 346.602 214.781 346.636 214.644 346.656L214.789 347.645C215.045 347.608 215.306 347.518 215.507 347.323C215.72 347.117 215.806 346.849 215.806 346.578H214.806ZM214.634 346.658C213.449 346.855 212.507 347.043 211.816 347.222L212.066 348.19C212.716 348.022 213.625 347.84 214.799 347.644L214.634 346.658ZM211.816 347.222C211.096 347.408 210.497 347.694 210.067 348.11L210.762 348.829C211.026 348.574 211.445 348.351 212.066 348.19L211.816 347.222ZM210.067 348.109C209.64 348.522 209.358 349.113 209.183 349.824L210.154 350.063C210.303 349.456 210.519 349.064 210.762 348.829L210.067 348.109ZM209.183 349.824C209.014 350.512 208.861 351.443 208.721 352.607L209.714 352.726C209.852 351.578 209.999 350.693 210.154 350.063L209.183 349.824ZM208.721 352.607C208.707 352.729 208.676 352.748 208.687 352.737C208.693 352.732 208.698 352.731 208.694 352.732C208.689 352.734 208.67 352.739 208.628 352.739V353.739C208.895 353.739 209.169 353.663 209.384 353.455C209.592 353.253 209.683 352.986 209.714 352.727L208.721 352.607ZM200.337 340.996C200.331 340.996 200.34 340.995 200.359 341.001C200.378 341.008 200.402 341.02 200.423 341.038C200.468 341.077 200.468 341.109 200.46 341.075L199.484 341.292C199.523 341.467 199.606 341.655 199.773 341.798C199.943 341.944 200.147 341.996 200.337 341.996V340.996ZM200.463 341.09C200.324 340.358 200.2 339.779 200.092 339.359L199.124 339.608C199.224 339.998 199.343 340.553 199.481 341.277L200.463 341.09ZM200.092 339.359C199.975 338.902 199.786 338.503 199.493 338.211L198.786 338.918C198.91 339.042 199.033 339.256 199.124 339.608L200.092 339.359ZM199.503 338.221C199.211 337.913 198.805 337.71 198.337 337.58L198.069 338.543C198.433 338.644 198.652 338.777 198.777 338.908L199.503 338.221ZM198.349 337.583C197.909 337.449 197.307 337.306 196.549 337.155L196.353 338.135C197.099 338.285 197.664 338.42 198.057 338.54L198.349 337.583ZM196.554 337.156C196.51 337.147 196.537 337.142 196.575 337.184C196.594 337.205 196.607 337.229 196.615 337.251C196.622 337.272 196.621 337.284 196.621 337.281H195.621C195.621 337.477 195.679 337.684 195.833 337.855C195.981 338.018 196.172 338.097 196.348 338.134L196.554 337.156ZM196.621 337.281C196.621 337.278 196.622 337.29 196.615 337.311C196.607 337.333 196.594 337.357 196.575 337.378C196.537 337.42 196.51 337.415 196.554 337.406L196.348 336.427C196.172 336.464 195.981 336.544 195.833 336.707C195.679 336.877 195.621 337.085 195.621 337.281H196.621ZM196.549 337.407C197.307 337.255 197.905 337.112 198.336 336.977L198.036 336.023C197.656 336.142 197.099 336.277 196.353 336.426L196.549 337.407ZM198.332 336.978C198.791 336.838 199.189 336.636 199.468 336.341L198.741 335.654C198.628 335.774 198.413 335.908 198.04 336.022L198.332 336.978ZM199.459 336.351C199.751 336.058 199.94 335.659 200.058 335.202L199.089 334.953C198.998 335.306 198.875 335.52 198.751 335.644L199.459 336.351ZM200.055 335.212C200.175 334.78 200.31 334.202 200.462 333.481L199.483 333.275C199.333 333.988 199.203 334.543 199.092 334.944L200.055 335.212ZM200.46 333.486C200.468 333.453 200.468 333.485 200.423 333.523C200.402 333.542 200.378 333.554 200.359 333.56C200.34 333.566 200.331 333.566 200.337 333.566V332.566C200.147 332.566 199.943 332.618 199.773 332.764C199.606 332.907 199.523 333.095 199.484 333.269L200.46 333.486ZM200.337 333.566C200.342 333.566 200.331 333.567 200.311 333.56C200.288 333.552 200.261 333.538 200.236 333.515C200.184 333.469 200.185 333.428 200.19 333.46L201.177 333.296C201.147 333.12 201.073 332.923 200.905 332.772C200.733 332.617 200.525 332.566 200.337 332.566V333.566ZM200.196 333.488C200.358 334.207 200.492 334.777 200.597 335.199L201.567 334.957C201.465 334.546 201.333 333.983 201.171 333.268L200.196 333.488ZM200.602 335.215C200.73 335.664 200.916 336.053 201.187 336.341L201.914 335.654C201.792 335.525 201.666 335.302 201.563 334.941L200.602 335.215ZM201.197 336.351C201.482 336.635 201.87 336.836 202.32 336.977L202.62 336.023C202.261 335.91 202.036 335.775 201.904 335.644L201.197 336.351ZM202.324 336.978C202.764 337.113 203.366 337.255 204.124 337.407L204.32 336.426C203.574 336.277 203.009 336.142 202.616 336.022L202.324 336.978ZM204.119 337.406C204.163 337.415 204.136 337.42 204.098 337.378C204.08 337.357 204.066 337.333 204.058 337.311C204.051 337.29 204.052 337.278 204.052 337.281H205.052C205.052 337.085 204.994 336.877 204.84 336.707C204.692 336.544 204.501 336.464 204.325 336.427L204.119 337.406ZM204.052 337.281C204.052 337.284 204.051 337.272 204.058 337.251C204.066 337.229 204.08 337.205 204.098 337.184C204.136 337.142 204.163 337.147 204.119 337.156L204.325 338.134C204.501 338.097 204.692 338.018 204.84 337.855C204.994 337.684 205.052 337.477 205.052 337.281H204.052ZM204.124 337.155C203.368 337.306 202.766 337.442 202.322 337.561L202.583 338.527C202.995 338.415 203.573 338.285 204.32 338.135L204.124 337.155ZM202.319 337.562C201.851 337.692 201.445 337.895 201.153 338.203L201.879 338.891C202.004 338.76 202.222 338.627 202.587 338.526L202.319 337.562ZM201.153 338.204C200.879 338.494 200.693 338.892 200.566 339.35L201.529 339.618C201.634 339.243 201.76 339.017 201.88 338.89L201.153 338.204ZM200.563 339.359C200.456 339.779 200.332 340.358 200.192 341.09L201.175 341.277C201.313 340.553 201.432 339.998 201.532 339.608L200.563 339.359ZM200.19 341.102C200.185 341.134 200.184 341.093 200.236 341.046C200.261 341.024 200.288 341.01 200.311 341.002C200.331 340.995 200.342 340.996 200.337 340.996V341.996C200.525 341.996 200.733 341.944 200.905 341.79C201.073 341.639 201.147 341.442 201.177 341.266L200.19 341.102Z" fill="#FFF23A" mask="url(#path-3-outside-1_57_1950)"/>
</svg>
