<svg width="20" height="19" viewBox="0 0 20 19" fill="none" xmlns="http://www.w3.org/2000/svg">
<path d="M6.59863 18.9443C5.97168 18.9443 5.40625 18.8037 4.90234 18.5225C4.39844 18.2471 4 17.8691 3.70703 17.3887C3.41406 16.9082 3.26758 16.3691 3.26758 15.7715C3.26758 15.1797 3.36426 14.6816 3.55762 14.2773C3.75098 13.8672 3.99121 13.5186 4.27832 13.2314C4.57129 12.9443 4.86719 12.6807 5.16602 12.4404C5.39453 12.2588 5.6084 12.0801 5.80762 11.9043C6.00684 11.7285 6.16797 11.5381 6.29102 11.333C6.40234 11.1514 6.50488 10.958 6.59863 10.7529C6.69238 10.5479 6.78613 10.3369 6.87988 10.1201C7.06738 9.68066 7.27832 9.25586 7.5127 8.8457C7.74707 8.43555 8.05762 8.09863 8.44434 7.83496C8.83105 7.56543 9.34668 7.43066 9.99121 7.43066C10.6299 7.43066 11.1426 7.56543 11.5293 7.83496C11.916 8.09863 12.2266 8.43555 12.4609 8.8457C12.6953 9.25586 12.9092 9.68359 13.1025 10.1289C13.1963 10.3398 13.29 10.5508 13.3838 10.7617C13.4775 10.9668 13.583 11.1631 13.7002 11.3506C13.8174 11.5498 13.9727 11.7373 14.166 11.9131C14.3652 12.083 14.582 12.2588 14.8164 12.4404C15.1094 12.6807 15.4023 12.9443 15.6953 13.2314C15.9883 13.5186 16.2314 13.8672 16.4248 14.2773C16.6182 14.6816 16.7148 15.1797 16.7148 15.7715C16.7148 16.3691 16.5684 16.9082 16.2754 17.3887C15.9824 17.8691 15.584 18.2471 15.0801 18.5225C14.5762 18.8037 14.0078 18.9443 13.375 18.9443C12.9355 18.9443 12.5576 18.9004 12.2412 18.8125C11.9248 18.7246 11.6436 18.6279 11.3975 18.5225C11.1338 18.4111 10.8936 18.3086 10.6768 18.2148C10.46 18.1211 10.2314 18.0742 9.99121 18.0742C9.74512 18.0742 9.51367 18.1211 9.29688 18.2148C9.08594 18.3086 8.84863 18.4111 8.58496 18.5225C8.33301 18.6279 8.04883 18.7246 7.73242 18.8125C7.41602 18.9004 7.03809 18.9443 6.59863 18.9443ZM6.59863 17.6699C6.90918 17.6699 7.19629 17.626 7.45996 17.5381C7.72363 17.4561 7.98438 17.3564 8.24219 17.2393C8.5 17.1279 8.76953 17.0283 9.05078 16.9404C9.33789 16.8525 9.65137 16.8086 9.99121 16.8086C10.3311 16.8086 10.6416 16.8525 10.9229 16.9404C11.2041 17.0283 11.4736 17.1279 11.7314 17.2393C11.9893 17.3564 12.25 17.4561 12.5137 17.5381C12.7832 17.626 13.0703 17.6699 13.375 17.6699C13.9727 17.6699 14.4648 17.4912 14.8516 17.1338C15.2441 16.7764 15.4404 16.3223 15.4404 15.7715C15.4404 15.2559 15.3467 14.8545 15.1592 14.5674C14.9775 14.2803 14.7432 14.0342 14.4561 13.8291C14.1689 13.624 13.8643 13.3926 13.542 13.1348C13.2256 12.877 12.9326 12.5195 12.6631 12.0625C12.4639 11.7168 12.2852 11.3506 12.127 10.9639C11.9688 10.5771 11.7988 10.2139 11.6172 9.87402C11.4414 9.52832 11.2246 9.24707 10.9668 9.03027C10.7148 8.81348 10.3896 8.70508 9.99121 8.70508C9.59277 8.70508 9.26465 8.81348 9.00684 9.03027C8.74902 9.24707 8.53223 9.52832 8.35645 9.87402C8.18066 10.2139 8.01367 10.5771 7.85547 10.9639C7.69727 11.3447 7.51855 11.7051 7.31934 12.0449C7.0498 12.5078 6.75391 12.8711 6.43164 13.1348C6.11523 13.3926 5.81348 13.624 5.52637 13.8291C5.23926 14.0342 5.00195 14.2803 4.81445 14.5674C4.63281 14.8545 4.54199 15.2559 4.54199 15.7715C4.54199 16.3223 4.73535 16.7764 5.12207 17.1338C5.50879 17.4912 6.00098 17.6699 6.59863 17.6699ZM0.499023 8.73145C0.499023 7.73535 0.712891 6.93262 1.14062 6.32324C1.57422 5.70801 2.14551 5.40039 2.85449 5.40039C3.56348 5.40039 4.13477 5.70801 4.56836 6.32324C5.00195 6.93262 5.21875 7.73535 5.21875 8.73145C5.21875 9.72754 5.00195 10.5332 4.56836 11.1484C4.13477 11.7578 3.56348 12.0625 2.85449 12.0625C2.14551 12.0625 1.57422 11.7578 1.14062 11.1484C0.712891 10.5332 0.499023 9.72754 0.499023 8.73145ZM1.7207 8.73145C1.7207 9.36426 1.82324 9.87402 2.02832 10.2607C2.23926 10.6475 2.51465 10.8408 2.85449 10.8408C3.19434 10.8408 3.46973 10.6475 3.68066 10.2607C3.8916 9.87402 3.99707 9.36426 3.99707 8.73145C3.99707 8.09863 3.8916 7.58887 3.68066 7.20215C3.46973 6.81543 3.19434 6.62207 2.85449 6.62207C2.51465 6.62207 2.23926 6.81543 2.02832 7.20215C1.82324 7.58887 1.7207 8.09863 1.7207 8.73145ZM4.77051 3.65137C4.77051 2.65527 4.98438 1.85254 5.41211 1.24316C5.8457 0.633789 6.41699 0.329102 7.12598 0.329102C7.84082 0.329102 8.41211 0.633789 8.83984 1.24316C9.27344 1.85254 9.49023 2.65527 9.49023 3.65137C9.49023 4.64746 9.27344 5.4502 8.83984 6.05957C8.40625 6.66895 7.83496 6.97363 7.12598 6.97363C6.41699 6.97363 5.8457 6.67188 5.41211 6.06836C4.98438 5.45898 4.77051 4.65332 4.77051 3.65137ZM5.99219 3.65137C5.99219 4.28418 6.09473 4.79395 6.2998 5.18066C6.51074 5.56152 6.78613 5.75195 7.12598 5.75195C7.47168 5.75195 7.74707 5.56152 7.95215 5.18066C8.16309 4.79395 8.26855 4.28418 8.26855 3.65137C8.26855 3.02441 8.16309 2.51758 7.95215 2.13086C7.74707 1.74414 7.47168 1.55078 7.12598 1.55078C6.78613 1.55078 6.51074 1.74414 6.2998 2.13086C6.09473 2.51172 5.99219 3.01855 5.99219 3.65137ZM10.5098 3.65137C10.5098 2.9834 10.6064 2.40332 10.7998 1.91113C10.999 1.41309 11.2744 1.02637 11.626 0.750977C11.9834 0.469727 12.3994 0.329102 12.874 0.329102C13.583 0.329102 14.1514 0.633789 14.5791 1.24316C15.0127 1.85254 15.2295 2.65527 15.2295 3.65137C15.2295 4.65332 15.0127 5.45898 14.5791 6.06836C14.1514 6.67188 13.583 6.97363 12.874 6.97363C12.3994 6.97363 11.9834 6.83594 11.626 6.56055C11.2744 6.28516 10.999 5.89844 10.7998 5.40039C10.6064 4.89648 10.5098 4.31348 10.5098 3.65137ZM11.7314 3.65137C11.7314 4.28418 11.834 4.79395 12.0391 5.18066C12.25 5.56152 12.5283 5.75195 12.874 5.75195C13.2139 5.75195 13.4863 5.56152 13.6914 5.18066C13.9023 4.79395 14.0078 4.28418 14.0078 3.65137C14.0078 3.01855 13.9023 2.51172 13.6914 2.13086C13.4863 1.74414 13.2139 1.55078 12.874 1.55078C12.5283 1.55078 12.25 1.74414 12.0391 2.13086C11.834 2.51758 11.7314 3.02441 11.7314 3.65137ZM14.7812 8.73145C14.7812 8.06934 14.8779 7.48926 15.0713 6.99121C15.2705 6.4873 15.5459 6.09766 15.8975 5.82227C16.2549 5.54102 16.6709 5.40039 17.1455 5.40039C17.8545 5.40039 18.4229 5.70801 18.8506 6.32324C19.2842 6.93262 19.501 7.73535 19.501 8.73145C19.501 9.72754 19.2842 10.5332 18.8506 11.1484C18.4229 11.7578 17.8545 12.0625 17.1455 12.0625C16.6709 12.0625 16.2549 11.9248 15.8975 11.6494C15.5459 11.3682 15.2705 10.9785 15.0713 10.4805C14.8779 9.97656 14.7812 9.39355 14.7812 8.73145ZM16.0029 8.73145C16.0029 9.36426 16.1084 9.87402 16.3193 10.2607C16.5303 10.6475 16.8057 10.8408 17.1455 10.8408C17.4912 10.8408 17.7666 10.6475 17.9717 10.2607C18.1768 9.87402 18.2793 9.36426 18.2793 8.73145C18.2793 8.09863 18.1768 7.58887 17.9717 7.20215C17.7666 6.81543 17.4912 6.62207 17.1455 6.62207C16.8057 6.62207 16.5303 6.81543 16.3193 7.20215C16.1084 7.58887 16.0029 8.09863 16.0029 8.73145Z" fill="#95B1AE"/>
</svg>
