<svg width="26" height="26" viewBox="0 0 26 26" fill="none" xmlns="http://www.w3.org/2000/svg">
<path d="M0.274193 12.0927C0.274193 11.3024 0.399193 10.5887 0.649193 9.95161C0.907257 9.30645 1.25403 8.79839 1.68952 8.42742C2.13306 8.04839 2.625 7.85887 3.16532 7.85887C3.71371 7.85887 4.20564 8.04839 4.64113 8.42742C5.08468 8.79839 5.43145 9.30645 5.68145 9.95161C5.93952 10.5887 6.06855 11.3024 6.06855 12.0927C6.06855 12.8911 5.93952 13.6089 5.68145 14.246C5.43145 14.8831 5.08468 15.3911 4.64113 15.7702C4.20564 16.1411 3.71371 16.3266 3.16532 16.3266C2.625 16.3266 2.13306 16.1411 1.68952 15.7702C1.25403 15.3911 0.907257 14.8831 0.649193 14.246C0.399193 13.6089 0.274193 12.8911 0.274193 12.0927ZM6.14113 5.1129C6.14113 4.31452 6.27016 3.59677 6.52823 2.95968C6.78629 2.32258 7.13306 1.81855 7.56855 1.44758C8.0121 1.06855 8.50403 0.879031 9.04435 0.879031C9.59274 0.879031 10.0847 1.06855 10.5202 1.44758C10.9637 1.81855 11.3145 2.32258 11.5726 2.95968C11.8306 3.59677 11.9597 4.31452 11.9597 5.1129C11.9597 5.90323 11.8306 6.62097 11.5726 7.26613C11.3145 7.90323 10.9637 8.40726 10.5202 8.77823C10.0847 9.14919 9.59274 9.33468 9.04435 9.33468C8.50403 9.33468 8.0121 9.14919 7.56855 8.77823C7.13306 8.40726 6.78629 7.90323 6.52823 7.26613C6.27016 6.62097 6.14113 5.90323 6.14113 5.1129ZM14.0524 5.1129C14.0524 4.31452 14.1774 3.59677 14.4274 2.95968C14.6855 2.32258 15.0323 1.81855 15.4677 1.44758C15.9113 1.06855 16.4073 0.879031 16.9556 0.879031C17.496 0.879031 17.9839 1.06855 18.4194 1.44758C18.8629 1.81855 19.2137 2.32258 19.4718 2.95968C19.7298 3.59677 19.8589 4.31452 19.8589 5.1129C19.8589 5.90323 19.7298 6.62097 19.4718 7.26613C19.2137 7.90323 18.8629 8.40726 18.4194 8.77823C17.9839 9.14919 17.496 9.33468 16.9556 9.33468C16.4073 9.33468 15.9113 9.14919 15.4677 8.77823C15.0323 8.40726 14.6855 7.90323 14.4274 7.26613C14.1774 6.62097 14.0524 5.90323 14.0524 5.1129ZM19.9315 12.0927C19.9315 11.3024 20.0605 10.5887 20.3185 9.95161C20.5766 9.30645 20.9234 8.79839 21.3589 8.42742C21.7944 8.04839 22.2863 7.85887 22.8347 7.85887C23.375 7.85887 23.8629 8.04839 24.2984 8.42742C24.7419 8.79839 25.0887 9.30645 25.3387 9.95161C25.5968 10.5887 25.7258 11.3024 25.7258 12.0927C25.7258 12.8911 25.5968 13.6089 25.3387 14.246C25.0887 14.8831 24.7419 15.3911 24.2984 15.7702C23.8629 16.1411 23.375 16.3266 22.8347 16.3266C22.2863 16.3266 21.7944 16.1411 21.3589 15.7702C20.9234 15.3911 20.5766 14.8831 20.3185 14.246C20.0605 13.6089 19.9315 12.8911 19.9315 12.0927ZM3.90323 21.4556C3.90323 20.7621 4.02419 20.1694 4.26613 19.6774C4.50806 19.1855 4.81452 18.7581 5.18548 18.3952C5.55645 18.0242 5.94355 17.6734 6.34677 17.3427C6.67742 17.0766 6.99597 16.8065 7.30242 16.5323C7.61693 16.25 7.88306 15.9395 8.10081 15.6008C8.27823 15.3347 8.43952 15.0605 8.58468 14.7782C8.7379 14.4879 8.87903 14.2016 9.00806 13.9194C9.29839 13.3065 9.59274 12.7258 9.89113 12.1774C10.1976 11.621 10.5887 11.1734 11.0645 10.8347C11.5403 10.4879 12.1855 10.3145 13 10.3145C13.8145 10.3145 14.4597 10.4879 14.9355 10.8347C15.4113 11.1734 15.7984 11.621 16.0968 12.1774C16.4032 12.7258 16.7016 13.3105 16.9919 13.9315C17.121 14.2137 17.2581 14.5 17.4032 14.7903C17.5565 15.0726 17.7258 15.3508 17.9113 15.625C18.129 15.9637 18.3911 16.2702 18.6976 16.5444C19.004 16.8105 19.3226 17.0766 19.6532 17.3427C20.0484 17.6734 20.4315 18.0242 20.8024 18.3952C21.1815 18.7581 21.4919 19.1855 21.7339 19.6774C21.9758 20.1694 22.0968 20.7621 22.0968 21.4556C22.0968 22.2702 21.9234 22.9919 21.5766 23.621C21.2379 24.25 20.7621 24.7419 20.1492 25.0968C19.5363 25.4597 18.8266 25.6411 18.0202 25.6411C17.4234 25.6411 16.8952 25.5726 16.4355 25.4355C15.9758 25.2984 15.5403 25.1573 15.129 25.0121C14.7823 24.8911 14.4395 24.7823 14.1008 24.6855C13.7621 24.5968 13.3952 24.5524 13 24.5524C12.6048 24.5524 12.2339 24.5968 11.8871 24.6855C11.5484 24.7823 11.2097 24.8911 10.871 25.0121C10.4516 25.1573 10.0121 25.2984 9.55242 25.4355C9.09274 25.5726 8.56452 25.6411 7.96774 25.6411C7.16129 25.6411 6.45161 25.4597 5.83871 25.0968C5.23387 24.7419 4.75806 24.25 4.41129 23.621C4.07258 22.9919 3.90323 22.2702 3.90323 21.4556Z" fill="#2F4858"/>
</svg>
