<svg width="18" height="18" viewBox="0 0 18 18" fill="none" xmlns="http://www.w3.org/2000/svg">
<path d="M3.03472 17.7101C2.13194 17.7101 1.45197 17.4844 0.994792 17.033C0.537616 16.5874 0.309028 15.9161 0.309028 15.0191V5.0191C0.309028 4.12211 0.537616 3.45081 0.994792 3.00521C1.45197 2.55382 2.13194 2.32813 3.03472 2.32813H12.8698L11.4722 3.7257H3.06076C2.62674 3.7257 2.29109 3.84144 2.05382 4.07292C1.82234 4.3044 1.7066 4.64583 1.7066 5.09722V14.9497C1.7066 15.401 1.82234 15.7425 2.05382 15.974C2.29109 16.1997 2.62674 16.3125 3.06076 16.3125H13.2083C13.5093 16.3125 13.7639 16.1997 13.9722 15.974C14.1863 15.7425 14.2934 15.401 14.2934 14.9497V6.61632L15.691 5.21875V15.0191C15.691 15.9161 15.474 16.5874 15.0399 17.033C14.6117 17.4844 14.0069 17.7101 13.2257 17.7101H3.03472ZM6.19444 12.0851C6.11343 12.1198 6.03819 12.1024 5.96875 12.033C5.90509 11.9578 5.89062 11.8825 5.92535 11.8073L6.7066 10.1753L14.8056 2.07639L15.9948 3.24826L7.88715 11.3472L6.19444 12.0851ZM16.6372 2.61458L15.4479 1.41667L16.0816 0.791668C16.2263 0.652779 16.3912 0.577547 16.5764 0.565973C16.7674 0.554399 16.9294 0.615163 17.0625 0.748265L17.2622 0.956598C17.4126 1.10127 17.485 1.2691 17.4792 1.46007C17.4792 1.64526 17.4068 1.81597 17.2622 1.97222L16.6372 2.61458Z" fill="black"/>
</svg>
