<svg width="20" height="18" viewBox="0 0 20 18" fill="none" xmlns="http://www.w3.org/2000/svg">
<path d="M3.59688 17.875C2.61562 17.875 1.87812 17.6313 1.38437 17.1438C0.896875 16.6625 0.653125 15.9375 0.653125 14.9687V3.52187C0.653125 2.55312 0.896875 1.82812 1.38437 1.34687C1.87812 0.859374 2.61562 0.615624 3.59688 0.615624H16.4031C17.3844 0.615624 18.1188 0.859374 18.6063 1.34687C19.0938 1.82812 19.3375 2.55312 19.3375 3.52187V14.9687C19.3375 15.9375 19.0938 16.6625 18.6063 17.1438C18.1188 17.6313 17.3844 17.875 16.4031 17.875H3.59688ZM3.45625 16.3656H16.525C16.9438 16.3656 17.2656 16.2531 17.4906 16.0281C17.7156 15.8094 17.8281 15.4844 17.8281 15.0531V6.2125C17.8281 5.78125 17.7156 5.45625 17.4906 5.2375C17.2656 5.0125 16.9438 4.9 16.525 4.9H3.45625C3.04375 4.9 2.725 5.0125 2.5 5.2375C2.275 5.45625 2.1625 5.78125 2.1625 6.2125V15.0531C2.1625 15.4844 2.275 15.8094 2.5 16.0281C2.725 16.2531 3.04375 16.3656 3.45625 16.3656ZM8.17188 8.275C8.00938 8.275 7.89375 8.24375 7.825 8.18125C7.7625 8.11875 7.73125 8.00625 7.73125 7.84375V7.29062C7.73125 7.12812 7.7625 7.01875 7.825 6.9625C7.89375 6.9 8.00938 6.86875 8.17188 6.86875H8.725C8.8875 6.86875 9 6.9 9.0625 6.9625C9.13125 7.01875 9.16563 7.12812 9.16563 7.29062V7.84375C9.16563 8.00625 9.13125 8.11875 9.0625 8.18125C9 8.24375 8.8875 8.275 8.725 8.275H8.17188ZM11.2844 8.275C11.1219 8.275 11.0094 8.24375 10.9469 8.18125C10.8844 8.11875 10.8531 8.00625 10.8531 7.84375V7.29062C10.8531 7.12812 10.8844 7.01875 10.9469 6.9625C11.0094 6.9 11.1219 6.86875 11.2844 6.86875H11.8375C12.0063 6.86875 12.1219 6.9 12.1844 6.9625C12.2469 7.01875 12.2781 7.12812 12.2781 7.29062V7.84375C12.2781 8.00625 12.2469 8.11875 12.1844 8.18125C12.1219 8.24375 12.0063 8.275 11.8375 8.275H11.2844ZM14.4063 8.275C14.2375 8.275 14.1219 8.24375 14.0594 8.18125C13.9969 8.11875 13.9656 8.00625 13.9656 7.84375V7.29062C13.9656 7.12812 13.9969 7.01875 14.0594 6.9625C14.1219 6.9 14.2375 6.86875 14.4063 6.86875H14.95C15.1188 6.86875 15.2344 6.9 15.2969 6.9625C15.3594 7.01875 15.3906 7.12812 15.3906 7.29062V7.84375C15.3906 8.00625 15.3594 8.11875 15.2969 8.18125C15.2344 8.24375 15.1188 8.275 14.95 8.275H14.4063ZM5.05938 11.3406C4.89063 11.3406 4.775 11.3094 4.7125 11.2469C4.65 11.1844 4.61875 11.0719 4.61875 10.9094V10.3656C4.61875 10.1969 4.65 10.0844 4.7125 10.0281C4.775 9.96562 4.89063 9.93437 5.05938 9.93437H5.6125C5.775 9.93437 5.8875 9.96562 5.95 10.0281C6.0125 10.0844 6.04375 10.1969 6.04375 10.3656V10.9094C6.04375 11.0719 6.0125 11.1844 5.95 11.2469C5.8875 11.3094 5.775 11.3406 5.6125 11.3406H5.05938ZM8.17188 11.3406C8.00938 11.3406 7.89375 11.3094 7.825 11.2469C7.7625 11.1844 7.73125 11.0719 7.73125 10.9094V10.3656C7.73125 10.1969 7.7625 10.0844 7.825 10.0281C7.89375 9.96562 8.00938 9.93437 8.17188 9.93437H8.725C8.8875 9.93437 9 9.96562 9.0625 10.0281C9.13125 10.0844 9.16563 10.1969 9.16563 10.3656V10.9094C9.16563 11.0719 9.13125 11.1844 9.0625 11.2469C9 11.3094 8.8875 11.3406 8.725 11.3406H8.17188ZM11.2844 11.3406C11.1219 11.3406 11.0094 11.3094 10.9469 11.2469C10.8844 11.1844 10.8531 11.0719 10.8531 10.9094V10.3656C10.8531 10.1969 10.8844 10.0844 10.9469 10.0281C11.0094 9.96562 11.1219 9.93437 11.2844 9.93437H11.8375C12.0063 9.93437 12.1219 9.96562 12.1844 10.0281C12.2469 10.0844 12.2781 10.1969 12.2781 10.3656V10.9094C12.2781 11.0719 12.2469 11.1844 12.1844 11.2469C12.1219 11.3094 12.0063 11.3406 11.8375 11.3406H11.2844ZM14.4063 11.3406C14.2375 11.3406 14.1219 11.3094 14.0594 11.2469C13.9969 11.1844 13.9656 11.0719 13.9656 10.9094V10.3656C13.9656 10.1969 13.9969 10.0844 14.0594 10.0281C14.1219 9.96562 14.2375 9.93437 14.4063 9.93437H14.95C15.1188 9.93437 15.2344 9.96562 15.2969 10.0281C15.3594 10.0844 15.3906 10.1969 15.3906 10.3656V10.9094C15.3906 11.0719 15.3594 11.1844 15.2969 11.2469C15.2344 11.3094 15.1188 11.3406 14.95 11.3406H14.4063ZM5.05938 14.4062C4.89063 14.4062 4.775 14.3781 4.7125 14.3219C4.65 14.2594 4.61875 14.1437 4.61875 13.975V13.4312C4.61875 13.2625 4.65 13.15 4.7125 13.0937C4.775 13.0312 4.89063 13 5.05938 13H5.6125C5.775 13 5.8875 13.0312 5.95 13.0937C6.0125 13.15 6.04375 13.2625 6.04375 13.4312V13.975C6.04375 14.1437 6.0125 14.2594 5.95 14.3219C5.8875 14.3781 5.775 14.4062 5.6125 14.4062H5.05938ZM8.17188 14.4062C8.00938 14.4062 7.89375 14.3781 7.825 14.3219C7.7625 14.2594 7.73125 14.1437 7.73125 13.975V13.4312C7.73125 13.2625 7.7625 13.15 7.825 13.0937C7.89375 13.0312 8.00938 13 8.17188 13H8.725C8.8875 13 9 13.0312 9.0625 13.0937C9.13125 13.15 9.16563 13.2625 9.16563 13.4312V13.975C9.16563 14.1437 9.13125 14.2594 9.0625 14.3219C9 14.3781 8.8875 14.4062 8.725 14.4062H8.17188ZM11.2844 14.4062C11.1219 14.4062 11.0094 14.3781 10.9469 14.3219C10.8844 14.2594 10.8531 14.1437 10.8531 13.975V13.4312C10.8531 13.2625 10.8844 13.15 10.9469 13.0937C11.0094 13.0312 11.1219 13 11.2844 13H11.8375C12.0063 13 12.1219 13.0312 12.1844 13.0937C12.2469 13.15 12.2781 13.2625 12.2781 13.4312V13.975C12.2781 14.1437 12.2469 14.2594 12.1844 14.3219C12.1219 14.3781 12.0063 14.4062 11.8375 14.4062H11.2844Z" fill="black"/>
</svg>
