<svg width="20" height="20" viewBox="0 0 20 20" fill="none" xmlns="http://www.w3.org/2000/svg">
<rect width="20" height="20" rx="10" fill="#006E80"/>
<path d="M4.84986 9.96364C4.84986 9.85774 4.86937 9.7602 4.90839 9.67102C4.9474 9.57627 5.00593 9.48987 5.08396 9.41184L11.7139 2.92401C11.8644 2.77909 12.0456 2.70663 12.2574 2.70663C12.4023 2.70663 12.5305 2.74007 12.642 2.80696C12.759 2.87384 12.851 2.96581 12.9179 3.08286C12.9903 3.19433 13.0265 3.32253 13.0265 3.46745C13.0265 3.67367 12.9513 3.85482 12.8008 4.01089L6.71428 9.96364L12.8008 15.9164C12.9513 16.0725 13.0265 16.2536 13.0265 16.4598C13.0265 16.6048 12.9903 16.7329 12.9179 16.8444C12.851 16.9615 12.759 17.0534 12.642 17.1203C12.5305 17.1872 12.4023 17.2206 12.2574 17.2206C12.0456 17.2206 11.8644 17.1454 11.7139 16.9949L5.08396 10.5154C5.00593 10.4374 4.9474 10.3538 4.90839 10.2646C4.86937 10.1699 4.84986 10.0695 4.84986 9.96364Z" fill="white"/>
</svg>
