<svg width="20" height="20" viewBox="0 0 20 20" fill="none" xmlns="http://www.w3.org/2000/svg">
<rect width="20" height="20" rx="10" fill="#006E80"/>
<path d="M15.1585 9.96364C15.1585 10.0695 15.1362 10.1699 15.0916 10.2646C15.0526 10.3538 14.9941 10.4374 14.916 10.5154L8.29444 16.9949C8.14394 17.1454 7.96001 17.2206 7.74264 17.2206C7.60329 17.2206 7.4751 17.1872 7.35805 17.1203C7.241 17.0534 7.14903 16.9615 7.08215 16.8444C7.01526 16.7329 6.98182 16.6048 6.98182 16.4598C6.98182 16.2536 7.05428 16.0725 7.1992 15.9164L13.2857 9.96364L7.1992 4.01089C7.05428 3.85482 6.98182 3.67367 6.98182 3.46745C6.98182 3.32253 7.01526 3.19433 7.08215 3.08286C7.14903 2.96581 7.241 2.87384 7.35805 2.80696C7.4751 2.74007 7.60329 2.70663 7.74264 2.70663C7.96001 2.70663 8.14394 2.77909 8.29444 2.92401L14.916 9.41184C14.9941 9.48987 15.0526 9.57627 15.0916 9.67102C15.1362 9.7602 15.1585 9.85774 15.1585 9.96364Z" fill="white"/>
</svg>
