<svg width="11" height="11" viewBox="0 0 11 11" fill="none" xmlns="http://www.w3.org/2000/svg">
<path d="M3.41461 1.14306C4.40456 -0.348972 6.59544 -0.348972 7.58539 1.14306C7.91793 1.64425 8.41985 2.00892 8.99928 2.17031C10.7242 2.65074 11.4012 4.73439 10.2881 6.13695C9.91421 6.6081 9.7225 7.19814 9.74806 7.79908C9.82417 9.58803 8.05171 10.8758 6.37383 10.2506C5.81021 10.0406 5.18979 10.0406 4.62617 10.2506C2.94829 10.8758 1.17583 9.58803 1.25194 7.79908C1.2775 7.19814 1.08579 6.6081 0.711879 6.13695C-0.401214 4.7344 0.275807 2.65074 2.00072 2.17031C2.58015 2.00892 3.08207 1.64425 3.41461 1.14306Z" fill="#FFF23A"/>
</svg>
