<svg width="293" height="278" viewBox="0 0 293 278" fill="none" xmlns="http://www.w3.org/2000/svg">
<circle cx="61.5" cy="76.4028" r="36.5" fill="white"/>
<ellipse cx="49.5" cy="28" rx="10.5" ry="28" fill="white"/>
<ellipse cx="19.4433" cy="43.9028" rx="10.5" ry="28" transform="rotate(-20 19.4433 43.9028)" fill="white"/>
<circle cx="65.5" cy="66.5" r="3.5" fill="#333333"/>
<circle cx="46.5" cy="79.5" r="3.5" fill="#333333"/>
<ellipse cx="60" cy="77.9999" rx="5" ry="3" transform="rotate(-30 60 77.9999)" fill="#FAC7DD" fill-opacity="0.9"/>
<path fill-rule="evenodd" clip-rule="evenodd" d="M117.842 49.5068C71.7562 66.399 39 109.438 39 159.864C39 225.034 93.7095 277.864 161.197 277.864C190.758 277.864 217.866 267.729 239 250.86C238.61 250.863 238.22 250.864 237.829 250.864C161.191 250.864 99.063 190.871 99.063 116.864C99.063 92.3095 105.903 69.2971 117.842 49.5068Z" fill="#FCD17C"/>
<path d="M98.3621 165.341C98.1988 165.26 98.0863 165.135 98.0247 164.966C97.9602 164.804 97.9568 164.627 98.0144 164.438C98.3608 163.403 98.6333 162.496 98.8319 161.715C99.0305 160.934 99.1435 160.245 99.1709 159.648C99.2011 159.045 99.1311 158.498 98.9608 158.007C98.7992 157.512 98.5256 157.038 98.1399 156.585C97.7543 156.132 97.2492 155.663 96.6247 155.179C96.0031 154.689 95.2489 154.144 94.362 153.543C94.1899 153.436 94.0745 153.295 94.0158 153.121C93.9658 152.943 93.9827 152.77 94.0667 152.601C94.1506 152.432 94.2769 152.316 94.4456 152.255C94.623 152.19 94.8079 152.191 95.0003 152.258C96.1982 152.7 97.227 153.028 98.0865 153.244C98.9548 153.457 99.7149 153.537 100.367 153.482C101.025 153.431 101.634 153.228 102.195 152.874C102.759 152.514 103.332 151.981 103.916 151.275C104.499 150.569 105.155 149.67 105.886 148.579C106.002 148.419 106.144 148.315 106.313 148.268C106.482 148.221 106.648 148.238 106.811 148.319C106.974 148.4 107.088 148.522 107.153 148.684C107.217 148.847 107.221 149.023 107.163 149.213C106.736 150.454 106.417 151.521 106.207 152.413C105.997 153.304 105.917 154.082 105.965 154.745C106.022 155.406 106.227 156.013 106.578 156.565C106.934 157.12 107.46 157.679 108.155 158.242C108.852 158.799 109.739 159.421 110.816 160.107C110.979 160.218 111.089 160.363 111.144 160.543C111.203 160.718 111.191 160.89 111.107 161.059C111.023 161.228 110.892 161.345 110.715 161.409C110.54 161.468 110.361 161.463 110.177 161.393C108.976 160.957 107.942 160.633 107.074 160.42C106.208 160.201 105.447 160.117 104.789 160.169C104.137 160.223 103.529 160.43 102.965 160.79C102.41 161.147 101.841 161.678 101.258 162.385C100.677 163.085 100.022 163.981 99.2915 165.072C99.1756 165.232 99.0332 165.336 98.8645 165.383C98.6928 165.436 98.5254 165.422 98.3621 165.341Z" fill="white"/>
<path d="M112.011 138.633C111.919 138.672 111.827 138.675 111.734 138.641C111.643 138.61 111.568 138.549 111.509 138.457C111.198 137.943 110.915 137.506 110.658 137.145C110.401 136.784 110.153 136.491 109.912 136.267C109.67 136.04 109.416 135.874 109.149 135.771C108.884 135.663 108.588 135.609 108.261 135.609C107.934 135.609 107.557 135.654 107.132 135.744C106.705 135.83 106.208 135.952 105.641 136.11C105.535 136.144 105.435 136.142 105.34 136.105C105.248 136.063 105.182 135.994 105.141 135.899C105.1 135.803 105.096 135.709 105.13 135.616C105.166 135.519 105.233 135.442 105.329 135.385C105.941 135.04 106.445 134.726 106.841 134.442C107.24 134.154 107.543 133.863 107.753 133.571C107.965 133.277 108.097 132.949 108.149 132.588C108.198 132.223 108.179 131.793 108.091 131.297C108.002 130.801 107.859 130.206 107.662 129.511C107.636 129.406 107.643 129.309 107.683 129.221C107.723 129.134 107.79 129.07 107.882 129.031C107.974 128.991 108.066 128.987 108.157 129.018C108.248 129.049 108.323 129.11 108.382 129.202C108.75 129.823 109.084 130.336 109.383 130.741C109.682 131.147 109.98 131.457 110.275 131.673C110.573 131.884 110.9 132.015 111.256 132.064C111.616 132.112 112.037 132.091 112.52 132C113.002 131.906 113.579 131.755 114.25 131.548C114.354 131.519 114.454 131.525 114.55 131.566C114.644 131.603 114.711 131.669 114.752 131.765C114.793 131.86 114.796 131.957 114.76 132.054C114.722 132.148 114.656 132.221 114.562 132.274C113.952 132.622 113.447 132.94 113.049 133.228C112.649 133.513 112.343 133.803 112.13 134.097C111.921 134.39 111.791 134.718 111.742 135.083C111.694 135.442 111.714 135.87 111.802 136.366C111.89 136.859 112.032 137.452 112.229 138.147C112.255 138.253 112.248 138.35 112.208 138.437C112.169 138.528 112.103 138.593 112.011 138.633Z" fill="white"/>
<path d="M156.274 217.151C156.093 217.171 155.931 217.127 155.788 217.018C155.645 216.916 155.547 216.77 155.493 216.58C155.225 215.522 154.964 214.611 154.708 213.847C154.453 213.083 154.176 212.442 153.876 211.925C153.575 211.402 153.22 210.979 152.811 210.658C152.408 210.329 151.922 210.079 151.352 209.906C150.783 209.734 150.104 209.613 149.317 209.543C148.529 209.467 147.6 209.416 146.529 209.391C146.327 209.394 146.153 209.338 146.01 209.223C145.872 209.1 145.792 208.946 145.771 208.758C145.75 208.57 145.794 208.405 145.903 208.262C146.017 208.112 146.173 208.012 146.371 207.964C147.617 207.688 148.661 207.408 149.5 207.125C150.346 206.835 151.028 206.49 151.547 206.092C152.073 205.693 152.476 205.193 152.756 204.592C153.036 203.984 153.23 203.226 153.338 202.316C153.447 201.407 153.513 200.296 153.538 198.983C153.549 198.785 153.612 198.621 153.729 198.49C153.845 198.359 153.994 198.284 154.175 198.263C154.356 198.243 154.518 198.284 154.661 198.386C154.803 198.489 154.901 198.635 154.955 198.825C155.267 200.101 155.576 201.17 155.881 202.034C156.187 202.897 156.54 203.595 156.939 204.127C157.345 204.652 157.845 205.051 158.438 205.326C159.039 205.6 159.783 205.786 160.672 205.884C161.56 205.975 162.642 206.018 163.919 206.014C164.116 206.018 164.287 206.081 164.431 206.203C164.575 206.318 164.657 206.469 164.678 206.657C164.699 206.844 164.652 207.013 164.538 207.164C164.423 207.307 164.27 207.4 164.078 207.441C162.832 207.723 161.786 208.01 160.94 208.3C160.094 208.584 159.408 208.926 158.883 209.325C158.364 209.723 157.964 210.226 157.685 210.834C157.411 211.434 157.22 212.189 157.111 213.098C157.002 214.001 156.935 215.109 156.91 216.422C156.9 216.62 156.836 216.784 156.72 216.915C156.604 217.052 156.455 217.131 156.274 217.151Z" fill="white"/>
<mask id="path-11-inside-1_542_1447" fill="white">
<path fill-rule="evenodd" clip-rule="evenodd" d="M121.747 52.7389C130.436 49.6195 139.651 47.4508 149.273 46.3792C213.208 39.2586 270.257 83.3455 277.057 144.405C281.578 184.997 262.786 223.156 230.896 246.271C233.909 246.122 236.939 245.879 239.983 245.54C239.987 245.54 239.99 245.539 239.994 245.539C269.485 221.145 286.463 183.682 282.027 143.852C274.901 79.8688 215.217 34.004 148.719 41.4099C141.76 42.185 135.002 43.5128 128.487 45.3425C126.137 47.7293 123.889 50.1968 121.747 52.7389Z"/>
</mask>
<path d="M121.747 52.7389L117.923 49.5173L105.957 63.7199L123.437 57.4448L121.747 52.7389ZM230.896 246.271L227.962 242.223L214.337 252.098L231.144 251.265L230.896 246.271ZM239.994 245.539L240.548 250.508L242.031 250.343L243.181 249.391L239.994 245.539ZM128.487 45.3425L127.135 40.5287L125.856 40.8879L124.924 41.8346L128.487 45.3425ZM148.719 41.4099C138.708 42.5249 129.112 44.7824 120.058 48.0329L123.437 57.4448C131.76 54.4565 140.594 52.3767 149.826 51.3485L148.719 41.4099ZM282.027 143.852C274.901 79.8711 215.219 34.0037 148.719 41.4099L149.826 51.3485C211.197 44.5135 265.613 86.8198 272.088 144.959L282.027 143.852ZM233.83 250.319C267.064 226.231 286.762 186.367 282.027 143.852L272.088 144.959C276.395 183.626 258.509 220.081 227.962 242.223L233.83 250.319ZM239.429 240.571C236.487 240.898 233.559 241.133 230.649 241.277L231.144 251.265C234.259 251.111 237.391 250.86 240.536 250.509L239.429 240.571ZM239.44 240.569C239.435 240.57 239.433 240.57 239.429 240.571L240.536 250.509C240.54 250.509 240.545 250.508 240.548 250.508L239.44 240.569ZM243.181 249.391C273.872 224.005 291.632 184.928 286.996 143.298L277.057 144.405C281.293 182.437 265.099 218.285 236.807 241.686L243.181 249.391ZM286.996 143.298C279.545 76.3921 217.226 28.7493 148.166 36.4407L149.273 46.3792C213.208 39.2586 270.257 83.3455 277.057 144.405L286.996 143.298ZM148.166 36.4407C140.936 37.2459 133.911 38.6258 127.135 40.5287L129.839 50.1562C136.093 48.3997 142.584 47.1241 149.273 46.3792L148.166 36.4407ZM125.571 55.9604C127.629 53.5178 129.79 51.1457 132.05 48.8503L124.924 41.8346C122.484 44.3128 120.149 46.8758 117.923 49.5173L125.571 55.9604Z" fill="#FCD17C" mask="url(#path-11-inside-1_542_1447)"/>
<circle cx="113.5" cy="185.007" r="10" stroke="white"/>
<circle cx="102.5" cy="104.007" r="15" stroke="white"/>
<circle cx="168.13" cy="234.637" r="13.317" transform="rotate(16.2433 168.13 234.637)" stroke="white"/>
<circle cx="107" cy="192.507" r="7" fill="white"/>
<circle cx="98" cy="90.5068" r="12" fill="white"/>
</svg>
