<svg width="19" height="19" viewBox="0 0 19 19" fill="none" xmlns="http://www.w3.org/2000/svg">
<path d="M17.3555 2.09766C17.8503 2.59245 18.1628 3.1849 18.293 3.875C18.4297 4.55859 18.498 5.31706 18.498 6.15039V13.7383C18.498 14.5781 18.4297 15.3398 18.293 16.0234C18.1628 16.707 17.8503 17.2995 17.3555 17.8008C16.8542 18.2956 16.2585 18.6113 15.5684 18.748C14.8783 18.8848 14.1165 18.9531 13.2832 18.9531H5.69531C4.86198 18.9531 4.10026 18.8848 3.41016 18.748C2.72656 18.6113 2.13411 18.2956 1.63281 17.8008C1.13151 17.2995 0.815755 16.707 0.685547 16.0234C0.555339 15.3398 0.490234 14.5781 0.490234 13.7383V6.13086C0.490234 5.31055 0.555339 4.55859 0.685547 3.875C0.822266 3.19141 1.13802 2.59896 1.63281 2.09766C2.13411 1.60286 2.72656 1.28711 3.41016 1.15039C4.10026 1.01367 4.85547 0.945312 5.67578 0.945312H13.2832C14.1165 0.945312 14.8783 1.01367 15.5684 1.15039C16.2585 1.28711 16.8542 1.60286 17.3555 2.09766ZM16.9258 5.88672C16.9258 5.38542 16.8802 4.89388 16.7891 4.41211C16.6979 3.93034 16.5026 3.54297 16.2031 3.25C15.9102 2.95052 15.5195 2.75521 15.0312 2.66406C14.5495 2.56641 14.0579 2.51758 13.5566 2.51758H5.46094C4.94661 2.51758 4.44206 2.56641 3.94727 2.66406C3.45898 2.75521 3.06836 2.94727 2.77539 3.24023C2.48242 3.53971 2.29036 3.93359 2.19922 4.42188C2.10807 4.90365 2.0625 5.40169 2.0625 5.91602V14.0117C2.0625 14.513 2.10807 15.0046 2.19922 15.4863C2.29036 15.9681 2.48242 16.3555 2.77539 16.6484C3.07487 16.9414 3.46549 17.1367 3.94727 17.2344C4.43555 17.332 4.93034 17.3809 5.43164 17.3809H13.5566C14.0579 17.3809 14.5495 17.332 15.0312 17.2344C15.5195 17.1432 15.9102 16.9479 16.2031 16.6484C16.4961 16.3555 16.6882 15.9681 16.7793 15.4863C16.877 15.0046 16.9258 14.513 16.9258 14.0117V5.88672ZM4.97266 9.94922C4.97266 9.70182 5.04753 9.50326 5.19727 9.35352C5.35352 9.19727 5.55859 9.11914 5.8125 9.11914H8.68359V6.24805C8.68359 6.00065 8.75846 5.79883 8.9082 5.64258C9.05794 5.48633 9.25 5.4082 9.48438 5.4082C9.73177 5.4082 9.93034 5.48633 10.0801 5.64258C10.2363 5.79232 10.3145 5.99414 10.3145 6.24805V9.11914H13.1953C13.4427 9.11914 13.6413 9.19727 13.791 9.35352C13.9473 9.50326 14.0254 9.70182 14.0254 9.94922C14.0254 10.1836 13.9473 10.3757 13.791 10.5254C13.6413 10.6751 13.4427 10.75 13.1953 10.75H10.3145V13.6309C10.3145 13.8783 10.2363 14.0801 10.0801 14.2363C9.93034 14.3861 9.73177 14.4609 9.48438 14.4609C9.25 14.4609 9.05794 14.3861 8.9082 14.2363C8.75846 14.0801 8.68359 13.8783 8.68359 13.6309V10.75H5.8125C5.5651 10.75 5.36328 10.6751 5.20703 10.5254C5.05078 10.3757 4.97266 10.1836 4.97266 9.94922Z" fill="#2F4858"/>
</svg>
