<svg width="19" height="19" viewBox="0 0 19 19" fill="none" xmlns="http://www.w3.org/2000/svg">
<path d="M3.57227 18.9434C2.55013 18.9434 1.7819 18.6895 1.26758 18.1816C0.759766 17.6803 0.505859 16.9284 0.505859 15.9258V3.99219C0.505859 2.98307 0.759766 2.22786 1.26758 1.72656C1.7819 1.21875 2.55013 0.964844 3.57227 0.964844H15.418C16.4401 0.964844 17.2051 1.21875 17.7129 1.72656C18.2272 2.23438 18.4844 2.98958 18.4844 3.99219V15.9258C18.4844 16.9284 18.2272 17.6803 17.7129 18.1816C17.2051 18.6895 16.4401 18.9434 15.418 18.9434H3.57227ZM8.40625 14.7148C8.57552 14.7148 8.72852 14.6758 8.86523 14.5977C9.00195 14.5195 9.1224 14.4023 9.22656 14.2461L13.8164 7.00977C13.875 6.91211 13.9303 6.80794 13.9824 6.69727C14.0345 6.58659 14.0605 6.47591 14.0605 6.36523C14.0605 6.13737 13.9759 5.95833 13.8066 5.82812C13.6374 5.69141 13.4486 5.62305 13.2402 5.62305C12.9538 5.62305 12.7194 5.77279 12.5371 6.07227L8.36719 12.7715L6.38477 10.2129C6.26107 10.0501 6.14062 9.93945 6.02344 9.88086C5.91276 9.82227 5.78581 9.79297 5.64258 9.79297C5.42122 9.79297 5.23568 9.87435 5.08594 10.0371C4.9362 10.1934 4.86133 10.3822 4.86133 10.6035C4.86133 10.7142 4.88086 10.8249 4.91992 10.9355C4.96549 11.0397 5.02409 11.1406 5.0957 11.2383L7.54688 14.2461C7.67708 14.4154 7.81055 14.5358 7.94727 14.6074C8.08398 14.679 8.23698 14.7148 8.40625 14.7148Z" fill="#2F4858"/>
</svg>
