<svg width="19" height="19" viewBox="0 0 19 19" fill="none" xmlns="http://www.w3.org/2000/svg">
<path d="M3.57227 18.9434C2.55013 18.9434 1.7819 18.6895 1.26758 18.1816C0.759766 17.6803 0.505859 16.9284 0.505859 15.9258V3.99219C0.505859 2.98307 0.759766 2.22786 1.26758 1.72656C1.7819 1.21875 2.55013 0.964844 3.57227 0.964844H15.418C16.4401 0.964844 17.2051 1.21875 17.7129 1.72656C18.2272 2.23438 18.4844 2.98958 18.4844 3.99219V15.9258C18.4844 16.9284 18.2272 17.6803 17.7129 18.1816C17.2051 18.6895 16.4401 18.9434 15.418 18.9434H3.57227ZM3.5918 17.3711H15.3984C15.8802 17.3711 16.2513 17.2441 16.5117 16.9902C16.7786 16.7298 16.9121 16.3457 16.9121 15.8379V4.08008C16.9121 3.57227 16.7786 3.18815 16.5117 2.92773C16.2513 2.66732 15.8802 2.53711 15.3984 2.53711H3.5918C3.10352 2.53711 2.72917 2.66732 2.46875 2.92773C2.20833 3.18815 2.07812 3.57227 2.07812 4.08008V15.8379C2.07812 16.3457 2.20833 16.7298 2.46875 16.9902C2.72917 17.2441 3.10352 17.3711 3.5918 17.3711ZM8.43555 14.5781C8.27279 14.5781 8.12305 14.5423 7.98633 14.4707C7.85612 14.3991 7.72917 14.2852 7.60547 14.1289L5.22266 11.1992C5.07292 10.9974 4.99805 10.7956 4.99805 10.5938C4.99805 10.3789 5.06966 10.1966 5.21289 10.0469C5.36263 9.89062 5.54167 9.8125 5.75 9.8125C5.88672 9.8125 6.01042 9.8418 6.12109 9.90039C6.23828 9.95247 6.35547 10.0566 6.47266 10.2129L8.39648 12.7031L12.4492 6.19922C12.6315 5.90625 12.8594 5.75977 13.1328 5.75977C13.3346 5.75977 13.5169 5.82487 13.6797 5.95508C13.8424 6.08529 13.9238 6.25781 13.9238 6.47266C13.9238 6.58333 13.8978 6.69401 13.8457 6.80469C13.8001 6.90885 13.748 7.00651 13.6895 7.09766L9.22656 14.1289C9.03125 14.4284 8.76758 14.5781 8.43555 14.5781Z" fill="#CBCBCB"/>
</svg>
