<svg width="24" height="24" viewBox="0 0 24 24" fill="none" xmlns="http://www.w3.org/2000/svg">
<path d="M4.29688 23.3086C3.07812 23.3086 2.16016 23.0039 1.54297 22.3945C0.925781 21.793 0.617188 20.8867 0.617188 19.6758V6.17578C0.617188 4.96484 0.925781 4.05859 1.54297 3.45703C2.16016 2.84766 3.07812 2.54297 4.29688 2.54297H17.5742L15.6875 4.42969H4.33203C3.74609 4.42969 3.29297 4.58594 2.97266 4.89844C2.66016 5.21094 2.50391 5.67188 2.50391 6.28125V19.582C2.50391 20.1914 2.66016 20.6523 2.97266 20.9648C3.29297 21.2695 3.74609 21.4219 4.33203 21.4219H18.0312C18.4375 21.4219 18.7812 21.2695 19.0625 20.9648C19.3516 20.6523 19.4961 20.1914 19.4961 19.582V8.33203L21.3828 6.44531V19.6758C21.3828 20.8867 21.0898 21.793 20.5039 22.3945C19.9258 23.0039 19.1094 23.3086 18.0547 23.3086H4.29688ZM8.5625 15.7148C8.45312 15.7617 8.35156 15.7383 8.25781 15.6445C8.17188 15.543 8.15234 15.4414 8.19922 15.3398L9.25391 13.1367L20.1875 2.20312L21.793 3.78516L10.8477 14.7188L8.5625 15.7148ZM22.6602 2.92969L21.0547 1.3125L21.9102 0.46875C22.1055 0.28125 22.3281 0.179687 22.5781 0.164062C22.8359 0.148438 23.0547 0.230469 23.2344 0.410156L23.5039 0.691406C23.707 0.886719 23.8047 1.11328 23.7969 1.37109C23.7969 1.62109 23.6992 1.85156 23.5039 2.0625L22.6602 2.92969Z" fill="black"/>
</svg>
